<?xml version="1.0" standalone="no"?>
<!DOCTYPE svg PUBLIC "-//W3C//DTD SVG 20010904//EN"
 "http://www.w3.org/TR/2001/REC-SVG-20010904/DTD/svg10.dtd">
<svg version="1.0" xmlns="http://www.w3.org/2000/svg"
 width="600.000000pt" height="561.000000pt" viewBox="0 0 600.000000 561.000000"
 preserveAspectRatio="xMidYMid meet">
<g transform="translate(0.000000,561.000000) scale(0.050000,-0.050000)"
fill="#000000" stroke="none">
<path d="M5518 10911 c-5 -4 -74 -12 -155 -18 -81 -6 -167 -24 -191 -40 -29
-19 -118 -31 -269 -36 -139 -5 -230 -16 -239 -30 -8 -13 -80 -37 -161 -54 -81
-16 -163 -45 -182 -62 -20 -18 -44 -31 -53 -29 -75 13 -166 -9 -216 -52 -32
-28 -82 -50 -110 -50 -30 0 -63 -16 -76 -38 -13 -20 -55 -43 -94 -50 -40 -8
-80 -29 -90 -48 -10 -19 -44 -37 -75 -40 -31 -2 -70 -22 -87 -44 -17 -22 -58
-41 -97 -44 -39 -3 -74 -19 -85 -40 -10 -19 -50 -40 -88 -47 -40 -8 -70 -25
-70 -41 0 -24 -29 -38 -45 -23 -3 3 -33 -20 -65 -50 -33 -30 -71 -55 -85 -55
-14 0 -25 -9 -25 -20 0 -11 -7 -18 -15 -15 -9 3 -29 -6 -45 -20 -75 -64 -187
-145 -200 -145 -8 0 -38 -36 -67 -80 -32 -48 -75 -85 -108 -93 -30 -7 -67 -30
-81 -50 -15 -20 -39 -37 -55 -37 -15 0 -34 -22 -40 -48 -7 -27 -30 -53 -51
-58 -21 -6 -38 -25 -38 -42 0 -18 -11 -32 -25 -32 -14 0 -61 -45 -105 -100
-44 -55 -86 -100 -94 -100 -8 0 -20 -32 -27 -70 -10 -50 -26 -74 -58 -82 -25
-6 -67 -38 -93 -71 -26 -33 -63 -76 -81 -97 -19 -20 -44 -56 -56 -78 -12 -23
-36 -42 -52 -42 -28 0 -37 -23 -30 -75 1 -14 -11 -31 -27 -37 -17 -6 -41 -44
-53 -85 -13 -40 -43 -93 -66 -117 -24 -25 -61 -69 -83 -98 -22 -30 -60 -74
-85 -98 -25 -25 -45 -62 -45 -84 0 -22 -22 -66 -50 -98 -27 -32 -50 -64 -50
-72 0 -7 -18 -19 -40 -26 -22 -7 -40 -29 -40 -50 0 -58 -22 -100 -52 -100 -28
0 -30 -5 -34 -85 -5 -109 58 -126 78 -22 8 45 27 76 49 81 19 6 40 27 45 48 7
25 28 38 63 38 29 0 48 -8 42 -18 -6 -10 3 -23 21 -30 27 -11 28 -15 1 -42
-17 -16 -44 -24 -62 -18 -18 7 -32 1 -32 -15 -5 -75 -24 -130 -60 -168 -21
-23 -39 -69 -39 -103 0 -38 -19 -79 -52 -112 -34 -34 -50 -71 -48 -108 8 -118
0 -169 -23 -154 -16 10 -20 4 -11 -20 8 -19 5 -29 -5 -23 -31 19 -42 -22 -43
-156 -1 -105 -7 -128 -34 -125 -35 2 -38 -16 -50 -254 -6 -113 28 -198 39 -97
1 12 3 33 5 44 1 12 13 15 27 7 20 -11 20 -8 0 13 -35 37 -31 66 6 51 24 -9
26 -4 12 22 -13 23 -10 42 9 61 16 16 23 36 17 47 -6 10 5 18 25 18 20 0 27 7
16 15 -25 19 -26 77 -2 99 11 9 12 4 2 -12 -11 -20 -9 -24 8 -13 13 8 22 34
19 58 -3 24 5 61 16 83 12 22 19 56 16 75 -3 19 2 31 11 25 10 -6 23 9 31 32
10 34 17 37 31 16 16 -26 29 149 19 249 -3 21 5 32 16 25 28 -17 59 43 75 145
7 46 23 83 36 83 12 0 9 9 -8 20 -29 19 -26 22 23 28 13 1 26 18 28 38 9 61
46 89 104 79 49 -9 51 -7 21 18 -60 48 -49 155 27 261 28 40 32 56 13 56 -19
1 -18 6 4 20 17 11 22 20 13 20 -10 0 -9 11 2 25 11 14 17 41 14 61 -3 20 7
41 23 47 15 6 28 24 28 39 0 15 27 47 60 71 33 25 60 57 60 72 0 15 9 22 19
15 11 -6 26 11 33 39 7 28 18 51 25 51 45 1 69 38 44 68 -21 26 -20 34 8 45
28 10 29 16 8 31 -19 13 -10 16 28 10 45 -7 51 -4 32 19 -18 22 -16 25 8 16
17 -6 37 -2 44 10 7 11 2 21 -13 22 -16 0 -13 8 9 21 19 11 35 35 35 53 0 24
6 27 22 11 30 -30 131 77 149 157 12 57 79 104 116 82 10 -5 11 9 4 32 -10 32
-6 40 14 32 16 -6 39 11 55 42 16 29 44 60 62 70 22 12 31 35 26 64 -5 25 -3
34 3 20 16 -32 49 -13 49 28 0 41 50 88 72 67 10 -9 29 -4 44 12 15 16 17 28
5 28 -42 0 -20 40 29 52 28 7 50 19 50 28 0 9 27 25 60 37 40 14 56 30 48 50
-6 16 -1 35 11 42 12 8 16 24 8 35 -8 14 -4 16 10 8 13 -8 17 -25 9 -38 -9
-16 -3 -15 18 2 18 14 39 24 49 22 45 -8 67 5 67 40 0 24 19 43 55 52 49 13
50 16 17 29 -37 13 -37 15 4 44 24 17 40 34 35 39 -5 5 22 19 60 30 45 15 69
15 69 2 0 -11 20 -3 43 18 24 21 37 26 28 11 -13 -22 -8 -23 27 -4 24 13 38
31 32 42 -7 10 2 13 19 7 24 -9 28 -4 18 23 -10 24 -6 31 10 21 12 -8 23 -6
23 5 0 11 -11 24 -25 30 -18 7 -18 10 -1 11 13 1 29 -7 36 -18 7 -11 32 -19
56 -18 34 2 36 5 9 12 -19 5 -35 18 -35 29 0 10 9 14 20 7 11 -7 20 -3 20 9 0
11 13 21 28 21 15 0 33 15 40 33 7 18 19 27 26 20 7 -7 29 2 49 20 29 26 37
27 37 5 1 -24 3 -24 18 0 10 15 32 22 49 16 21 -8 28 -3 20 16 -11 29 85 104
107 83 7 -8 32 4 55 26 49 47 194 101 269 101 41 1 46 5 22 20 -16 11 -21 20
-10 21 11 1 38 6 60 11 111 26 170 23 145 -8 -20 -24 -13 -24 40 3 36 19 65
43 65 54 0 10 62 19 140 19 113 0 148 8 180 40 22 22 65 41 95 41 50 2 119 12
159 23 9 2 36 -7 61 -20 36 -21 45 -20 45 0 1 68 35 82 190 78 115 -3 166 4
204 29 38 25 62 28 94 14 31 -15 50 -12 70 10 27 29 572 16 572 -13 0 -2 68
-7 150 -12 287 -15 510 -45 570 -77 33 -17 123 -41 200 -53 77 -12 149 -31
159 -41 10 -11 55 -19 100 -19 50 0 127 -23 201 -60 66 -33 138 -60 160 -60
22 0 67 -18 100 -40 33 -22 73 -40 89 -40 16 0 47 -17 70 -38 64 -60 193 -88
230 -51 39 38 8 92 -59 103 -26 4 -62 19 -79 33 -17 14 -74 42 -126 61 -52 19
-100 43 -106 54 -6 10 -32 18 -57 18 -25 0 -61 17 -80 38 -19 21 -76 44 -128
52 -51 8 -127 31 -168 52 -41 21 -109 38 -150 38 -42 0 -103 18 -136 40 -38
25 -94 40 -151 40 -50 0 -144 14 -210 31 -65 17 -150 36 -189 42 -79 13 -1171
29 -1182 18z m-4588 -4191 c-7 -11 -1 -20 14 -20 19 -1 18 -6 -4 -20 -22 -14
-23 -19 -4 -20 15 0 21 -9 14 -20 -7 -11 -21 -20 -32 -20 -11 0 -15 8 -9 19 6
10 2 24 -10 31 -14 10 -14 22 2 42 27 32 47 38 29 8z"/>
<path d="M5878 10651 c-6 -5 -135 -15 -288 -21 -179 -7 -283 -19 -293 -34 -8
-13 -39 -26 -70 -29 -32 -3 -106 -14 -167 -24 -60 -10 -117 -14 -126 -9 -9 6
-28 -5 -41 -23 -17 -23 -70 -38 -175 -48 -107 -10 -166 -26 -204 -57 -38 -29
-76 -40 -126 -35 -40 3 -67 1 -61 -5 18 -18 -43 -68 -92 -74 -70 -8 -116 -34
-102 -57 9 -14 1 -17 -18 -10 -18 7 -37 2 -42 -11 -7 -18 -10 -18 -11 1 -2 29
-62 34 -62 5 0 -11 -7 -18 -16 -15 -20 6 -171 -69 -181 -90 -3 -8 -17 -15 -30
-16 -12 0 -49 -22 -81 -48 -33 -27 -72 -42 -90 -36 -18 6 -25 4 -17 -5 19 -21
-62 -90 -107 -90 -19 0 -41 -18 -48 -40 -9 -28 -37 -44 -94 -53 -55 -9 -84
-25 -91 -50 -5 -20 -22 -37 -37 -37 -14 0 -36 -17 -47 -39 -12 -21 -41 -44
-66 -52 -25 -7 -70 -37 -101 -66 -31 -29 -72 -53 -90 -53 -51 -1 -84 -28 -84
-69 0 -35 -199 -228 -281 -271 -22 -12 -34 -28 -26 -36 7 -8 -1 -14 -20 -14
-18 0 -33 -14 -33 -31 0 -17 -40 -68 -90 -113 -49 -45 -90 -92 -90 -105 0 -12
-25 -46 -55 -74 -132 -126 -205 -216 -205 -255 0 -23 -18 -58 -40 -77 -22 -18
-40 -45 -40 -59 0 -15 -7 -26 -15 -26 -8 0 -40 -45 -71 -100 -31 -55 -64 -100
-74 -100 -10 0 -28 -35 -39 -78 -12 -43 -33 -82 -46 -88 -14 -5 -56 -71 -94
-147 -38 -75 -76 -141 -83 -147 -8 -5 -25 -50 -39 -100 -14 -49 -41 -104 -60
-121 -20 -19 -38 -71 -43 -130 -5 -55 -28 -140 -52 -191 -23 -51 -48 -123 -54
-160 -6 -37 -20 -95 -30 -128 -10 -33 -27 -98 -39 -144 -13 -48 -37 -88 -56
-95 -23 -7 -35 -31 -35 -69 0 -32 8 -53 17 -48 25 16 1 -130 -27 -164 -14 -17
-17 -30 -7 -30 11 0 10 -45 -1 -110 -12 -60 -28 -110 -36 -110 -9 0 -16 -28
-16 -61 0 -36 -8 -56 -20 -49 -11 7 -20 -2 -20 -19 0 -17 7 -31 16 -31 19 0
57 -102 75 -205 10 -55 3 -94 -26 -151 -37 -70 -38 -81 -10 -133 20 -39 32
-138 38 -309 11 -346 25 -466 52 -449 12 7 15 4 8 -8 -7 -12 -1 -69 15 -128
15 -59 26 -145 25 -192 -2 -51 7 -88 22 -94 14 -5 25 -36 25 -68 0 -32 12 -68
27 -81 16 -13 23 -44 18 -72 -6 -29 0 -50 13 -50 12 0 22 -17 22 -38 0 -21 9
-42 19 -45 10 -4 24 -35 30 -69 6 -35 24 -89 41 -120 16 -32 30 -71 30 -88 0
-16 18 -57 40 -90 22 -33 40 -78 40 -101 0 -22 16 -62 35 -90 19 -27 33 -51
31 -54 -3 -2 9 -36 26 -76 16 -39 23 -81 15 -93 -9 -15 -2 -18 18 -11 20 8 35
-1 42 -28 5 -22 28 -45 51 -51 38 -10 164 -200 175 -265 2 -15 19 -36 37 -46
18 -10 41 -38 51 -62 26 -60 65 -120 89 -138 11 -8 5 -15 -15 -15 -19 0 -35
-10 -35 -21 0 -12 10 -15 22 -8 27 17 98 -58 98 -105 1 -27 5 -30 18 -9 13 21
19 20 29 -5 6 -18 26 -32 44 -32 48 0 289 -245 289 -294 0 -23 13 -52 30 -66
16 -14 30 -44 31 -67 0 -24 32 -70 71 -103 38 -33 91 -80 116 -105 49 -47 100
-44 120 7 6 15 29 28 51 28 42 0 89 -64 65 -91 -8 -8 -3 -9 11 -1 39 22 99 -5
111 -49 7 -28 27 -39 72 -39 73 0 84 -47 20 -81 -53 -28 -98 -11 -98 38 0 41
-79 69 -122 42 -41 -26 -3 -79 57 -79 38 0 62 -14 75 -45 11 -25 38 -48 60
-52 22 -3 50 -19 61 -33 34 -43 133 -47 140 -5 4 25 -8 35 -43 35 -42 0 -48
10 -51 80 -2 44 -4 91 -5 105 -2 25 -54 64 -116 87 -19 7 -40 30 -47 52 -8 23
-24 34 -41 28 -15 -6 -28 -2 -28 8 0 10 -14 14 -30 7 -22 -8 -27 -2 -19 20 9
23 -6 34 -59 44 -40 7 -72 24 -72 36 0 13 -26 43 -58 68 -100 79 -211 190
-233 233 -12 23 -32 40 -44 38 -11 -3 -26 16 -33 42 -6 26 -30 52 -52 58 -22
6 -40 24 -40 41 0 17 -18 36 -39 43 -21 6 -44 27 -50 46 -6 19 -51 77 -100
130 -49 53 -94 113 -101 134 -6 20 -25 41 -41 48 -16 6 -29 23 -29 38 0 15
-23 48 -50 74 -28 26 -50 59 -50 73 0 14 -17 42 -38 61 -21 20 -45 61 -53 93
-8 31 -26 61 -40 66 -14 5 -31 34 -39 63 -7 30 -29 72 -49 94 -20 22 -43 62
-52 90 -8 27 -28 59 -43 70 -16 12 -37 60 -48 108 -10 47 -32 99 -49 115 -26
27 -39 86 -31 135 5 26 -61 92 -81 80 -9 -6 -17 44 -17 110 0 93 -9 129 -38
156 -27 25 -41 70 -46 150 -5 72 -20 128 -43 152 -24 27 -37 81 -42 179 -9
169 -50 442 -74 489 -34 66 -22 939 13 1010 41 82 49 127 52 286 3 128 23 196
66 224 23 15 24 21 29 150 2 53 17 98 41 120 25 24 40 73 46 148 6 75 23 131
52 168 27 34 44 84 44 130 0 48 14 86 40 110 22 20 40 61 40 92 0 31 17 73 38
92 20 20 44 59 52 86 8 28 31 65 50 83 19 18 40 70 47 115 8 50 24 82 41 82
15 0 34 24 41 54 8 30 31 66 52 81 22 15 39 49 39 75 0 30 15 52 40 60 22 7
40 27 40 44 0 17 16 46 35 64 19 17 51 66 70 107 19 41 43 75 55 75 11 0 20
13 20 29 0 15 17 34 37 40 21 7 45 29 55 50 22 48 171 221 274 319 197 186
294 286 294 303 0 17 31 26 46 14 4 -3 23 11 43 31 20 20 60 52 89 70 29 18
64 49 78 69 15 19 39 35 55 35 16 0 40 18 54 40 13 22 40 40 59 40 19 0 50 22
68 50 18 27 39 46 47 40 8 -5 45 14 82 41 37 27 78 49 92 49 14 0 42 17 61 38
20 20 59 44 86 52 28 8 66 31 85 52 19 20 66 42 103 49 41 8 72 27 77 48 5 19
22 35 37 35 90 4 202 44 187 68 -6 9 21 16 59 14 39 -1 83 8 98 21 15 12 34
16 43 8 8 -8 11 -2 8 14 -4 16 2 30 13 32 179 21 253 39 288 71 30 29 70 38
156 38 144 0 277 26 272 53 -2 13 54 23 140 26 79 3 230 10 334 15 105 6 297
8 427 7 148 -3 260 5 296 20 49 20 64 19 94 -8 27 -24 75 -33 182 -33 112 0
152 -8 170 -32 15 -21 56 -34 108 -35 45 -1 83 -7 83 -13 0 -7 29 -10 65 -9
40 2 82 -13 111 -38 33 -30 81 -43 180 -49 77 -5 148 -21 167 -37 17 -16 58
-33 90 -39 31 -5 72 -29 90 -53 38 -49 215 -69 242 -28 32 50 14 73 -56 73
-62 0 -75 9 -100 70 -25 59 -42 72 -110 82 -44 7 -85 21 -90 30 -6 9 -32 8
-58 -2 -35 -13 -67 -7 -124 22 -42 23 -126 46 -187 52 -65 7 -126 26 -150 48
-61 55 -406 114 -750 128 -115 4 -265 13 -331 19 -67 6 -126 7 -131 2z"/>
<path d="M8462 10271 c-49 -26 50 -127 158 -161 47 -15 85 -41 229 -161 33
-27 75 -49 94 -49 19 0 40 -9 47 -20 26 -42 52 -17 46 45 -5 51 -21 72 -75 99
-38 19 -76 49 -86 65 -9 17 -34 31 -55 31 -21 0 -59 21 -84 46 -100 101 -206
142 -274 105z"/>
<path d="M8150 10082 c-22 -9 -56 -14 -75 -11 -56 9 -41 -8 35 -40 39 -16 70
-43 70 -60 0 -17 9 -32 20 -33 11 -2 29 -5 40 -8 11 -3 37 -6 58 -7 20 -2 42
-20 47 -40 6 -24 36 -42 82 -51 40 -8 73 -22 73 -32 0 -11 34 -37 76 -58 42
-22 88 -53 103 -71 15 -18 57 -31 103 -31 50 0 78 -9 78 -26 0 -37 112 -154
148 -154 16 0 37 -12 46 -27 9 -15 43 -41 76 -59 33 -18 82 -44 109 -58 43
-22 104 -80 194 -180 13 -14 63 -60 110 -101 187 -160 213 -187 226 -230 8
-25 26 -45 42 -45 15 0 43 -29 61 -64 18 -35 43 -74 56 -87 12 -12 40 -48 62
-80 22 -31 65 -81 95 -111 30 -30 55 -67 55 -83 0 -15 23 -49 50 -75 28 -26
50 -59 50 -73 0 -14 18 -35 40 -47 26 -14 40 -42 40 -81 0 -35 17 -74 41 -94
22 -19 49 -69 60 -110 11 -41 29 -75 40 -75 11 0 29 -23 40 -52 11 -28 37 -57
59 -62 30 -8 42 -34 52 -108 7 -53 25 -108 41 -120 15 -13 27 -54 27 -93 0
-132 114 -259 177 -197 36 36 -4 212 -49 212 -20 0 -19 13 7 57 30 54 30 60
-11 118 -24 34 -44 73 -45 88 -1 33 -57 135 -59 107 -1 -36 -39 39 -40 78 0
22 -14 55 -32 74 -22 25 -26 45 -12 71 20 40 10 93 -15 77 -9 -5 -40 13 -68
39 -29 27 -53 45 -53 39 0 -41 -83 51 -131 145 -32 64 -74 132 -94 152 -19 19
-35 44 -35 55 0 11 -13 20 -29 20 -15 0 -34 17 -40 37 -7 21 -30 54 -52 73
-21 20 -39 48 -39 63 0 36 59 34 101 -4 31 -28 35 -26 43 29 5 33 4 57 -3 53
-14 -9 -74 33 -78 54 -2 8 -3 24 -3 35 0 11 -13 20 -30 20 -16 0 -30 -17 -30
-38 0 -53 -65 -74 -90 -30 -11 20 -58 71 -105 115 -47 44 -83 93 -80 110 3 18
-12 35 -35 39 -43 9 -170 131 -170 164 0 11 -14 20 -31 20 -16 0 -35 13 -42
30 -6 16 -44 40 -85 52 -47 14 -91 47 -122 92 -27 39 -69 80 -94 92 -25 11
-46 28 -46 38 0 10 -33 32 -73 49 -40 16 -86 43 -101 58 -16 16 -47 29 -69 29
-24 0 -45 17 -51 40 -6 22 -34 46 -63 53 -29 7 -73 34 -97 60 -24 26 -57 47
-74 47 -16 0 -56 33 -90 74 -62 75 -77 83 -206 100 -41 6 -85 23 -98 38 -26
31 -32 32 -88 10z"/>
<path d="M9140 9808 c0 -33 104 -148 135 -148 9 0 53 -32 96 -72 43 -40 112
-89 154 -110 41 -22 75 -47 75 -57 0 -10 18 -24 40 -31 22 -7 40 -25 40 -41 0
-15 17 -37 39 -48 21 -12 44 -39 51 -61 7 -22 20 -36 29 -31 23 15 67 -43 52
-67 -7 -11 -24 -16 -39 -10 -18 7 -26 -5 -24 -34 3 -57 48 -73 66 -25 24 66
106 80 106 18 0 -13 23 -35 50 -47 28 -13 50 -35 50 -49 0 -14 17 -41 38 -58
20 -18 41 -43 45 -56 4 -12 27 -24 50 -26 23 -2 39 -13 34 -26 -14 -35 50 -80
76 -54 24 24 -123 224 -195 265 -23 13 -56 48 -74 78 -18 31 -79 100 -137 154
-57 54 -130 123 -162 153 -32 30 -67 55 -77 55 -10 0 -29 23 -42 50 -12 28
-34 50 -49 50 -14 0 -35 18 -47 40 -12 22 -32 40 -46 40 -13 1 -64 41 -113 90
-95 96 -221 129 -221 58z"/>
<path d="M10328 8725 c-6 -19 -19 -55 -29 -80 -15 -38 -10 -46 36 -58 122 -31
211 -207 105 -207 -10 0 -18 -31 -16 -70 3 -80 27 -91 58 -24 29 64 98 66 98
3 0 -27 9 -50 20 -51 11 -2 31 -4 45 -5 15 -2 26 -34 27 -82 1 -58 12 -83 41
-96 21 -10 50 -45 62 -78 27 -72 72 -67 81 8 4 34 -8 61 -35 80 -22 16 -47 58
-54 93 -8 43 -29 71 -60 83 -26 10 -47 30 -47 45 0 15 -17 44 -39 63 -21 19
-42 59 -45 88 -3 31 -18 53 -36 53 -41 0 -78 51 -69 95 4 21 -5 42 -20 47 -15
6 -38 37 -52 69 -27 67 -55 76 -71 24z"/>
<path d="M10240 8550 c0 -32 11 -50 31 -50 41 0 61 60 27 82 -45 28 -58 21
-58 -32z"/>
<path d="M10873 7906 c-32 -32 -13 -150 27 -160 32 -8 40 -28 41 -93 0 -46 15
-119 32 -163 17 -44 41 -117 54 -162 13 -45 47 -113 77 -150 l53 -68 45 45 46
44 -54 57 c-30 31 -54 69 -54 85 0 69 -44 179 -71 179 -16 0 -28 7 -27 15 15
91 -8 192 -52 237 -27 27 -50 62 -50 76 0 34 -49 76 -67 58z"/>
<path d="M920 7442 c0 -20 -17 -42 -37 -47 -37 -10 -62 -97 -63 -225 0 -41 -6
-52 -18 -33 -29 46 -49 -12 -54 -153 -3 -98 -13 -136 -44 -165 -30 -27 -44
-74 -54 -173 -7 -75 -15 -154 -17 -176 -3 -22 -19 -62 -38 -90 -49 -75 -69
-586 -47 -1240 12 -350 18 -400 57 -485 17 -36 37 -114 45 -175 8 -60 28 -126
46 -146 18 -20 33 -78 35 -135 7 -148 25 -203 65 -195 29 6 33 27 27 136 -7
142 -30 204 -70 188 -22 -8 -27 31 -25 193 2 180 -2 205 -38 231 -84 62 -78
1498 7 1564 27 21 33 65 32 264 0 130 5 233 13 229 45 -28 68 18 65 126 -3
112 15 175 64 215 14 11 31 64 39 118 7 54 26 111 42 127 37 37 36 85 -2 85
-16 0 -30 -17 -30 -38z"/>
<path d="M2775 7144 c-30 -4 -55 -19 -55 -34 0 -15 -23 -54 -50 -86 -28 -33
-56 -90 -63 -127 -7 -37 -26 -82 -41 -100 -16 -19 -34 -73 -40 -120 -6 -48
-25 -102 -41 -121 -50 -58 -57 -210 -11 -272 21 -30 45 -71 53 -91 34 -93 243
-36 377 103 143 147 204 164 185 49 -18 -110 -47 -159 -112 -186 -31 -13 -57
-32 -57 -41 0 -10 -29 -32 -65 -49 -109 -52 -196 -104 -233 -137 -19 -18 -42
-32 -50 -32 -19 0 -142 -123 -159 -160 -8 -16 -28 -52 -43 -80 -73 -125 24
-321 158 -320 181 2 267 63 414 295 43 69 88 125 99 125 10 0 19 26 19 57 0
32 17 80 38 106 21 27 45 82 52 122 8 40 31 88 52 107 21 19 38 46 38 61 0 14
22 32 49 39 27 6 55 29 62 50 6 21 20 38 30 38 11 0 36 17 57 38 36 36 78 50
137 44 16 -1 25 -36 25 -97 1 -119 6 -127 137 -192 119 -59 187 -67 222 -24
13 16 49 34 80 41 65 14 243 198 281 290 28 67 74 100 138 100 22 0 51 19 64
43 40 75 68 -12 68 -213 0 -176 1 -180 55 -206 30 -14 55 -33 55 -42 0 -9 46
-1 102 17 95 31 338 251 338 306 0 8 19 15 43 15 40 0 42 -6 29 -131 -13 -126
52 -249 132 -249 54 0 309 222 401 350 24 33 59 72 79 86 48 35 50 174 3 192
-40 16 -105 -49 -217 -218 -89 -134 -100 -145 -167 -163 -90 -24 -105 140 -23
255 20 29 43 85 51 125 7 39 26 82 41 95 39 32 87 205 74 262 -30 121 -150
138 -197 27 -15 -37 -37 -73 -47 -80 -10 -6 -24 -46 -32 -89 -7 -43 -30 -94
-51 -113 -22 -20 -39 -45 -40 -57 0 -18 -104 -150 -320 -407 -37 -44 -133 -31
-146 21 -15 60 5 132 50 177 20 20 37 54 37 76 0 39 99 244 168 346 l37 55
-72 74 c-80 82 -142 77 -186 -16 -12 -27 -41 -89 -64 -140 -24 -51 -43 -109
-44 -130 -1 -75 -110 -142 -241 -148 -19 0 -57 95 -43 109 7 6 15 23 17 37 2
13 8 47 13 74 12 68 -20 180 -52 180 -14 0 -45 23 -69 50 -61 70 -253 73 -335
5 -128 -108 -289 -275 -289 -301 0 -16 -13 -40 -29 -53 -16 -13 -34 -48 -40
-78 -12 -54 -118 -183 -151 -183 -9 0 -23 -18 -30 -40 -9 -28 -30 -40 -74 -40
l-61 0 14 95 c7 53 29 109 49 126 20 17 42 64 50 104 7 41 25 81 39 89 52 33
88 172 63 246 -33 100 -133 111 -179 21 -18 -33 -40 -61 -51 -61 -10 0 -24
-33 -32 -74 -8 -41 -31 -92 -51 -114 -20 -22 -37 -51 -37 -64 0 -24 -46 -86
-135 -181 -25 -27 -45 -53 -45 -58 0 -5 -47 -59 -104 -119 -219 -232 -304 -54
-119 250 24 39 43 85 43 104 0 19 13 41 29 50 132 74 88 327 -54 310z m1466
-198 c37 -96 16 -235 -36 -242 -33 -5 -50 7 -64 45 -13 31 -35 51 -61 51 -54
0 -59 147 -5 178 69 41 144 26 166 -32z m-249 -144 c12 -1 32 -37 45 -79 14
-49 41 -85 73 -99 124 -57 -62 -364 -220 -364 -115 0 -168 230 -84 363 16 26
36 70 44 97 21 71 46 97 86 90 19 -4 44 -8 56 -8z m-1089 -892 c-4 -32 -29
-85 -55 -116 -26 -31 -48 -64 -48 -73 0 -32 -122 -168 -175 -195 -115 -60
-148 61 -50 184 119 150 157 190 190 201 19 6 35 25 35 42 0 21 17 28 55 23
48 -5 54 -13 48 -66z"/>
<path d="M6880 7145 c-16 -6 -58 -32 -92 -58 -34 -26 -72 -47 -85 -47 -13 0
-23 -7 -23 -15 0 -8 -29 -49 -65 -90 -139 -160 -155 -183 -155 -220 0 -21 -18
-62 -40 -90 -52 -65 -59 -333 -10 -352 17 -7 39 -35 50 -62 10 -28 34 -51 53
-51 19 0 50 -14 69 -32 59 -53 180 -58 274 -10 45 23 91 42 102 42 26 0 156
86 228 151 68 61 129 39 147 -52 7 -36 42 -83 85 -117 l73 -58 102 43 c65 28
129 76 177 133 41 50 85 93 97 98 13 4 39 21 58 38 40 34 41 32 43 -110 4
-158 117 -253 208 -174 125 108 238 195 278 213 57 27 88 1 41 -34 -54 -39
-44 -117 18 -145 72 -34 158 16 176 102 6 34 30 80 51 102 76 77 140 156 140
170 0 24 198 266 257 314 96 80 153 44 84 -52 -23 -32 -47 -89 -54 -125 -7
-37 -31 -88 -54 -113 -62 -69 -63 -342 0 -374 23 -12 57 -34 75 -49 18 -15 39
-21 46 -14 7 7 24 3 39 -10 20 -16 27 -16 27 2 0 12 29 35 65 50 118 50 435
392 435 470 0 82 -47 137 -88 103 -18 -15 -32 -37 -32 -50 0 -12 -18 -34 -40
-47 -22 -14 -40 -35 -40 -47 0 -48 -208 -258 -254 -258 -75 0 -120 51 -84 93
18 20 43 82 57 137 13 55 41 116 63 136 22 21 38 62 38 100 0 35 18 91 40 124
61 92 5 251 -89 250 -65 -1 -311 -218 -451 -400 -70 -90 -97 -117 -142 -141
-22 -12 -35 -28 -30 -36 5 -8 -8 -14 -28 -14 -29 0 -33 6 -16 25 11 14 14 26
5 26 -8 0 -1 16 16 35 16 19 37 58 45 85 9 28 37 75 63 107 26 31 47 66 47 78
0 12 14 37 31 56 28 31 27 41 -7 102 -62 111 -204 98 -204 -18 0 -28 -17 -88
-39 -133 -21 -45 -44 -115 -50 -155 -7 -40 -25 -78 -42 -84 -16 -7 -29 -24
-29 -39 0 -16 -25 -54 -55 -87 -30 -32 -83 -91 -118 -131 -83 -96 -153 -140
-196 -123 -46 17 -27 226 29 317 20 33 43 94 51 135 7 42 22 80 32 87 9 6 37
48 60 93 l42 83 -45 36 c-52 42 -105 46 -160 11 -35 -21 -47 -17 -93 32 -64
70 -216 69 -293 -2 -24 -22 -64 -47 -89 -54 -25 -8 -54 -31 -66 -52 -11 -22
-34 -39 -50 -39 -16 0 -29 -13 -29 -29 0 -16 -16 -40 -35 -55 -19 -14 -48 -53
-65 -85 -16 -33 -46 -76 -65 -95 -19 -20 -35 -47 -36 -61 0 -31 -69 -115 -93
-115 -21 0 -91 -51 -160 -115 -26 -25 -59 -45 -72 -45 -13 0 -60 -22 -104 -49
-125 -78 -234 -70 -303 21 -43 56 -50 79 -33 106 11 18 27 70 35 115 14 86 19
94 181 294 119 147 125 152 193 153 83 0 112 -51 60 -107 -53 -56 -53 -61 1
-134 55 -74 66 -74 139 5 196 209 -42 489 -323 381z m1168 -177 c43 -17 44
-159 1 -176 -17 -6 -42 -36 -55 -67 -40 -93 -287 -385 -325 -385 -7 0 -28 -19
-47 -42 -94 -116 -144 137 -52 262 28 37 50 79 50 93 0 13 17 36 37 51 20 14
40 37 45 50 44 127 247 252 346 214z"/>
<path d="M10966 6775 c-33 -51 -57 -91 -94 -157 -20 -38 -50 -75 -65 -84 -15
-9 -27 -25 -27 -37 0 -12 -22 -48 -50 -81 -27 -32 -50 -76 -50 -97 0 -21 -18
-47 -40 -59 -22 -12 -45 -43 -52 -69 -6 -26 -29 -64 -50 -83 -21 -19 -38 -46
-38 -59 0 -14 -23 -43 -52 -63 -71 -52 -76 -175 -10 -229 56 -45 133 -48 149
-7 7 17 36 42 66 55 31 14 75 45 100 70 25 25 55 45 66 45 12 0 21 13 21 30 0
16 22 43 49 61 27 18 44 44 38 58 -17 47 30 54 73 11 43 -43 45 -100 6 -170
-38 -68 -44 -159 -56 -757 -10 -496 -16 -583 -45 -628 -19 -29 -40 -113 -47
-189 -7 -77 -25 -151 -43 -171 -16 -19 -34 -81 -39 -138 -6 -61 -26 -124 -51
-155 -22 -28 -47 -85 -54 -125 -8 -40 -27 -86 -42 -101 -16 -16 -29 -48 -29
-72 0 -24 -14 -66 -30 -94 -16 -27 -43 -79 -60 -115 -17 -36 -49 -84 -70 -105
-22 -22 -40 -57 -40 -77 0 -20 -17 -53 -39 -72 -21 -19 -44 -63 -51 -98 -7
-35 -22 -88 -34 -119 -12 -30 -17 -59 -13 -64 19 -18 157 33 157 58 0 14 18
42 40 62 22 20 40 49 40 66 0 16 39 93 87 171 47 79 85 149 85 157 -1 8 14 33
33 56 19 22 43 78 54 124 10 45 32 91 50 100 20 12 31 46 31 94 0 44 16 97 37
124 20 27 42 87 48 136 24 182 104 171 113 -17 2 -48 9 -96 14 -105 37 -60 76
51 71 204 -2 63 3 81 16 60 36 -56 83 100 56 188 l-22 73 -27 -63 c-14 -34
-26 -84 -26 -111 0 -56 -55 -86 -82 -45 -25 37 -9 371 19 404 12 15 27 89 34
165 6 77 21 175 32 219 17 69 22 152 21 340 -2 247 -5 342 -16 470 -6 82 -15
156 -20 163 -5 8 0 36 10 63 20 52 182 38 182 -15 0 -57 234 -271 295 -271 96
0 118 240 25 270 -20 6 -42 33 -48 60 -7 27 -35 82 -62 122 -28 41 -50 81 -50
91 0 9 -18 35 -40 57 -22 22 -40 56 -40 75 0 20 -18 47 -40 60 -22 14 -40 35
-40 47 0 12 -22 49 -50 82 -27 32 -50 70 -50 83 0 13 -16 39 -35 57 -19 18
-47 47 -61 65 -31 37 -115 41 -138 6z m169 -362 c90 -97 113 -136 133 -221 12
-49 10 -55 -13 -36 -20 16 -34 17 -49 2 -25 -25 -226 -39 -226 -16 0 8 -31 10
-70 4 -45 -7 -70 -3 -70 11 0 13 -8 21 -18 18 -10 -3 -18 4 -18 15 0 11 8 18
17 15 10 -2 13 8 7 23 -6 15 4 41 21 58 17 17 31 39 31 48 0 30 122 166 149
166 14 0 62 -39 106 -87z"/>
<path d="M763 6025 c2 -63 2 -295 1 -515 -1 -220 -2 -418 -2 -439 0 -22 9 -50
19 -62 23 -28 62 -226 67 -339 2 -44 6 -118 8 -165 3 -59 13 -85 33 -85 39 0
58 -70 53 -193 -3 -89 2 -106 37 -117 29 -9 42 -31 44 -76 6 -167 24 -199 100
-179 36 10 37 12 5 48 -27 29 -28 37 -6 37 17 0 20 7 8 15 -26 19 -34 54 -39
170 -2 52 -12 102 -21 110 -9 8 -9 2 0 -13 11 -20 9 -24 -9 -13 -19 12 -18 23
6 47 29 28 28 33 -10 53 -31 16 -43 45 -49 120 -4 54 -19 105 -33 114 -14 9
-19 17 -11 17 7 0 6 27 -4 59 -11 40 -9 62 7 68 13 6 6 11 -14 11 -30 2 -36
14 -29 62 5 33 1 60 -10 60 -10 0 -9 13 4 28 56 67 1 266 -67 240 -52 -21 -38
70 15 94 44 20 63 175 27 212 -6 6 -2 33 9 61 13 34 13 58 -1 72 -28 28 -27
219 1 247 14 14 15 34 3 59 -11 20 -16 48 -11 61 5 14 -1 41 -13 60 -18 30
-19 26 -9 -19 10 -46 7 -53 -21 -43 -18 7 -29 24 -24 38 6 14 2 33 -8 43 -9 9
-10 50 0 92 15 66 12 75 -21 75 -33 0 -37 -15 -35 -115z"/>
<path d="M7066 5844 c-36 -37 -66 -79 -66 -93 0 -14 -17 -47 -37 -73 -21 -27
-44 -69 -52 -95 -8 -26 -32 -64 -53 -85 -21 -21 -38 -60 -38 -87 0 -27 -12
-56 -26 -65 -28 -17 -97 -204 -145 -395 -17 -66 -44 -134 -60 -152 -16 -18
-29 -71 -29 -121 0 -101 -27 -132 -240 -281 -296 -206 -446 -252 -541 -166
-59 54 -50 254 17 338 24 31 44 69 44 85 0 61 229 266 296 266 72 0 89 -59 36
-118 -34 -38 6 -162 52 -161 125 3 219 304 113 360 -26 14 -57 39 -70 56 -36
49 -208 41 -277 -13 -30 -24 -69 -44 -85 -44 -35 0 -245 -212 -245 -247 0 -14
-22 -56 -50 -93 -27 -37 -50 -76 -50 -86 0 -42 -273 -354 -310 -354 -79 0 -86
264 -9 337 19 18 44 68 56 110 12 43 34 92 50 110 122 141 75 264 -88 230
-100 -20 -159 -1 -159 52 0 52 -213 31 -271 -28 -18 -17 -47 -31 -65 -32 -72
-1 -199 -156 -336 -409 -143 -264 -674 -489 -754 -319 -66 138 -25 185 165
187 121 2 219 54 337 181 36 39 81 87 100 107 40 43 48 216 10 229 -13 4 -57
34 -97 66 -81 64 -224 68 -290 8 -18 -16 -42 -29 -53 -29 -40 0 -346 -320
-346 -362 0 -20 -100 -24 -148 -6 -42 16 -44 159 -3 175 47 18 97 131 72 162
-59 71 -201 48 -300 -49 -82 -81 -232 -267 -247 -305 -7 -19 -31 -35 -53 -35
-54 0 -56 104 -3 154 46 43 92 190 75 236 -27 69 -178 31 -199 -50 -10 -38
-25 -79 -35 -91 -9 -11 -27 -83 -39 -159 -12 -77 -35 -153 -50 -170 -30 -34
-71 -348 -55 -430 15 -76 183 -115 186 -43 3 90 27 187 51 205 15 12 28 37 28
54 0 18 23 56 50 86 28 30 50 60 50 68 0 8 23 38 50 68 28 30 50 62 50 71 0
23 118 141 139 141 22 0 41 -52 41 -111 0 -70 42 -89 193 -89 l92 0 -14 -140
c-14 -148 62 -299 151 -300 18 0 55 -18 83 -40 28 -22 77 -40 109 -40 32 0 93
18 136 40 43 22 101 40 128 40 27 0 63 13 80 29 18 15 59 54 92 85 96 90 188
67 189 -48 1 -25 21 -55 46 -69 25 -13 54 -36 66 -52 21 -29 129 -16 129 16 0
9 27 22 60 29 36 8 90 49 137 104 69 80 85 90 134 78 41 -11 49 -20 32 -37
-31 -31 -29 -109 4 -129 14 -9 32 -32 39 -51 18 -50 137 -47 184 5 20 22 46
40 59 40 12 0 63 41 112 91 107 109 166 113 175 14 5 -48 22 -73 62 -94 30
-16 67 -42 81 -60 59 -70 417 0 483 95 7 10 31 28 53 41 22 13 63 39 91 60 29
20 72 33 98 30 l46 -7 -45 -39 c-53 -47 -55 -65 -15 -146 67 -133 166 -58 294
220 13 30 37 55 51 55 14 0 34 22 44 48 10 26 26 51 35 55 9 4 52 60 96 125
93 136 177 232 206 232 54 0 58 -141 6 -189 -22 -19 -50 -81 -63 -138 -14 -56
-37 -121 -52 -142 -37 -54 -34 -122 8 -187 98 -152 150 -175 240 -104 28 22
61 40 74 40 13 0 43 20 66 45 23 25 54 55 69 67 14 12 53 56 86 98 33 41 80
94 105 116 53 48 62 175 16 213 -32 27 -71 13 -71 -26 0 -13 -27 -56 -59 -94
-33 -38 -60 -75 -60 -82 -2 -22 -108 -128 -168 -167 -129 -84 -142 83 -22 290
15 28 29 70 29 94 0 24 23 78 51 119 65 96 62 205 -8 239 -25 13 -56 33 -67
44 -15 15 -34 9 -62 -18 -23 -21 -54 -38 -70 -38 -40 0 -302 -272 -389 -405
-33 -51 -115 -69 -115 -26 0 47 43 171 59 171 9 0 27 29 39 63 12 35 36 78 52
95 16 18 57 62 91 99 35 39 57 80 50 97 -6 16 -11 33 -11 38 0 4 -18 8 -40 8
-75 0 -3 231 112 362 15 17 28 49 28 71 0 61 49 116 90 100 48 -19 28 -175
-30 -233 -22 -22 -40 -61 -40 -88 0 -29 -20 -60 -50 -80 -66 -43 -77 -188 -11
-153 21 12 45 41 52 66 8 25 26 59 41 75 81 89 126 158 144 225 11 41 35 89
52 106 57 57 42 192 -29 260 -84 80 -151 78 -233 -7z m-2958 -936 c64 -25 -57
-230 -153 -259 -25 -7 -63 -30 -85 -49 -162 -143 -262 -35 -117 127 155 172
251 221 355 181z m995 -23 c40 -40 32 -122 -15 -163 -26 -23 -48 -51 -48 -63
0 -56 -237 -334 -352 -412 -63 -43 -66 -43 -99 -6 -50 55 -31 236 28 276 24
15 43 39 43 54 0 29 87 133 220 263 88 86 170 105 223 51z"/>
<path d="M9386 5630 c-24 -17 -49 -59 -57 -95 -8 -36 -31 -86 -52 -113 -20
-26 -37 -67 -37 -92 0 -85 -81 -150 -187 -150 -132 0 -181 -28 -150 -86 29
-55 56 -73 110 -74 77 0 97 -49 58 -150 -19 -50 -42 -90 -52 -90 -9 0 -23 -32
-31 -72 -21 -115 -379 -518 -439 -495 -62 24 -49 261 17 313 16 13 35 57 42
97 7 40 26 84 42 97 17 14 41 61 54 104 13 44 35 85 50 90 40 15 31 49 -33
126 l-58 70 -57 -42 c-59 -44 -163 -230 -165 -298 -1 -22 -19 -67 -41 -100
-21 -33 -45 -100 -52 -150 -8 -49 -26 -125 -41 -169 -63 -178 129 -393 258
-291 28 22 58 40 66 40 21 0 149 134 149 157 0 32 54 64 87 51 18 -7 33 -25
33 -41 0 -38 70 -175 111 -215 49 -49 163 -40 236 19 35 28 83 66 108 85 94
71 265 249 265 276 0 15 13 28 28 28 51 0 53 59 2 92 -60 39 -113 30 -139 -23
-35 -67 -281 -329 -310 -329 -96 0 -97 307 -2 463 22 37 41 85 41 107 0 22 18
74 40 115 22 41 40 85 40 98 0 43 70 76 170 78 154 4 200 23 200 80 0 47 -5
49 -134 49 -73 0 -139 6 -145 13 -18 17 9 117 32 117 10 0 46 61 79 135 l61
135 -44 35 c-53 43 -97 44 -153 5z"/>
<path d="M8757 5619 c-66 -38 -94 -270 -39 -325 45 -45 119 -32 190 32 169
156 40 405 -151 293z"/>
<path d="M11280 4904 c-63 -69 -85 -452 -24 -440 45 9 59 87 36 211 -14 78
-12 117 7 152 35 67 22 121 -19 77z"/>
<path d="M858 3968 c-19 -199 -18 -208 9 -208 29 0 52 -58 53 -134 0 -25 18
-54 40 -66 28 -15 40 -42 40 -90 0 -45 15 -83 44 -109 24 -23 47 -61 50 -86
10 -62 40 -89 69 -60 32 32 -5 157 -44 150 -20 -3 -30 16 -31 60 -4 135 -9
155 -37 155 -19 0 -33 32 -43 93 -9 62 -30 108 -61 135 -27 23 -53 69 -59 102
-11 60 -27 92 -30 58z"/>
<path d="M1141 3808 c15 -17 14 -28 0 -37 -12 -8 -21 -51 -21 -96 0 -66 5 -78
25 -58 34 34 34 216 1 216 -18 0 -19 -7 -5 -25z"/>
<path d="M1240 3570 c-14 -17 -20 -36 -14 -43 7 -7 3 -30 -8 -52 -17 -31 -13
-47 20 -78 23 -21 43 -45 43 -53 8 -72 26 -118 59 -149 22 -20 40 -59 40 -86
0 -35 15 -56 49 -69 32 -12 47 -31 42 -55 -5 -25 5 -36 31 -36 21 0 38 7 38
16 0 10 11 11 25 3 19 -11 20 -8 2 12 -13 13 -19 36 -14 50 5 14 -11 41 -37
58 -36 26 -40 37 -19 50 21 13 20 19 -7 29 -18 7 -27 22 -20 33 7 11 3 20 -9
20 -11 0 -21 14 -21 31 0 16 -13 35 -30 42 -16 6 -25 19 -19 29 6 10 1 18 -12
18 -17 0 -16 10 4 34 16 20 17 28 3 19 -27 -16 -73 53 -50 76 8 8 -4 12 -26 8
-24 -4 -38 3 -35 18 3 14 -5 25 -17 25 -16 0 -15 10 2 30 14 17 21 35 16 41
-6 5 -22 -4 -36 -21z"/>
<path d="M10693 3184 c-16 -26 20 -70 45 -55 32 19 27 71 -7 71 -16 0 -33 -7
-38 -16z"/>
<path d="M1281 3011 c-30 -35 2 -91 51 -91 18 0 28 -23 28 -66 0 -46 15 -80
50 -110 28 -24 50 -52 50 -63 0 -10 16 -23 36 -30 19 -6 45 -38 58 -71 12 -33
30 -60 40 -60 24 0 20 118 -4 136 -12 8 -32 39 -45 69 -13 30 -36 53 -50 50
-16 -3 -27 22 -31 70 -4 48 -17 75 -34 75 -15 0 -40 24 -54 54 -32 65 -62 77
-95 37z"/>
<path d="M1565 2888 c27 -31 29 -46 11 -64 -19 -19 -18 -24 1 -24 31 0 71 -38
88 -85 8 -19 23 -35 34 -35 12 0 21 -10 21 -22 0 -13 27 -53 60 -91 33 -38 60
-82 60 -98 0 -16 18 -29 40 -29 22 0 40 -9 40 -20 0 -11 12 -20 28 -20 31 0
99 -93 84 -116 -5 -9 18 -18 52 -20 79 -6 96 -18 96 -65 0 -22 7 -38 15 -37
34 5 105 -28 105 -50 0 -30 76 -77 101 -61 29 18 23 69 -9 69 -15 0 -42 23
-60 50 -18 28 -46 50 -62 50 -27 0 -38 38 -35 116 1 19 -6 20 -27 2 -38 -31
-128 -5 -128 37 -1 26 -5 28 -17 10 -12 -20 -25 -15 -54 18 -22 24 -28 37 -14
29 36 -21 31 18 -6 49 -25 20 -26 29 -5 42 18 11 8 22 -34 37 -55 19 -129 120
-89 120 10 0 13 14 6 30 -6 17 -28 30 -49 30 -21 0 -38 14 -38 30 0 17 -13 30
-30 30 -16 0 -30 10 -30 21 0 12 -9 16 -20 9 -11 -7 -54 13 -95 43 -51 38 -64
43 -40 15z"/>
<path d="M10105 2716 c-30 -44 -75 -98 -98 -120 -24 -22 -49 -61 -55 -87 -7
-26 -71 -106 -142 -178 -72 -73 -130 -138 -130 -145 0 -7 -35 -42 -77 -78 -43
-37 -89 -94 -103 -127 -14 -34 -37 -61 -52 -61 -16 0 -28 -9 -28 -21 0 -11
-16 -26 -35 -33 -19 -7 -133 -93 -252 -190 -119 -97 -226 -176 -238 -176 -12
0 -36 -13 -53 -30 -69 -65 -155 -124 -216 -148 -35 -14 -68 -38 -74 -54 -6
-15 -28 -28 -48 -28 -21 0 -54 -17 -73 -39 -19 -21 -63 -45 -98 -52 -35 -7
-76 -24 -93 -38 -16 -13 -60 -36 -96 -50 -36 -15 -75 -43 -85 -64 -13 -23 -42
-37 -80 -37 -35 0 -74 -17 -94 -40 -18 -22 -66 -46 -104 -53 -39 -7 -98 -28
-131 -47 -33 -18 -100 -39 -148 -45 -48 -7 -93 -20 -100 -30 -24 -38 -101 -65
-181 -65 -55 0 -94 -13 -122 -41 -36 -36 -71 -43 -251 -48 -163 -5 -220 -15
-263 -44 -51 -34 -101 -37 -655 -35 -616 1 -663 5 -800 56 -44 17 -127 31
-184 31 -57 1 -109 10 -116 21 -7 12 -21 15 -31 9 -11 -6 -19 -3 -19 8 0 22
-92 47 -204 54 -41 3 -104 27 -140 52 -37 26 -97 48 -136 49 -151 4 -164 8
-154 36 11 28 -61 52 -158 52 -25 0 -54 14 -63 30 -9 17 -38 35 -64 40 -26 5
-66 26 -89 48 -23 21 -80 48 -125 61 -46 12 -109 35 -140 51 -32 16 -80 30
-107 30 -28 0 -61 17 -74 37 -13 21 -48 44 -79 52 -31 8 -70 26 -87 41 -16 15
-54 50 -84 77 -30 27 -75 56 -100 64 -42 13 -121 68 -196 137 -16 15 -57 41
-90 58 -33 17 -109 81 -169 142 -60 62 -121 112 -136 112 -14 0 -32 14 -38 31
-7 17 -36 43 -65 58 -29 15 -93 64 -142 109 -121 111 -213 92 -138 -28 38 -60
538 -510 567 -510 13 0 43 -23 67 -50 24 -28 53 -50 65 -50 27 0 299 -222 299
-244 0 -9 12 -16 27 -16 15 0 61 -23 101 -50 41 -28 94 -50 119 -50 25 0 76
-22 113 -50 37 -27 78 -50 91 -50 13 0 34 -12 47 -28 12 -15 56 -32 97 -39 43
-7 85 -29 99 -50 16 -26 57 -44 125 -53 55 -7 105 -21 111 -30 22 -35 226
-128 315 -142 53 -9 108 -28 124 -44 16 -16 67 -35 114 -42 47 -8 113 -31 146
-51 39 -24 121 -43 231 -52 94 -8 190 -22 214 -31 27 -10 50 -8 57 4 8 13 33
7 66 -16 46 -31 105 -37 443 -41 281 -3 431 -14 535 -38 135 -32 147 -32 182
0 29 26 93 36 294 45 181 9 264 20 278 39 13 17 84 32 181 40 88 8 180 26 204
41 25 16 57 28 71 28 15 0 56 28 91 62 67 66 200 110 233 77 58 -58 182 -6
163 69 -7 29 -4 52 6 52 10 0 32 5 48 11 16 6 44 -4 62 -22 44 -43 94 -23 85
35 -9 56 29 95 97 101 30 2 62 19 72 38 10 19 44 40 76 47 32 7 79 30 104 52
29 25 68 37 107 34 48 -5 60 2 61 32 0 74 68 88 119 25 53 -65 82 -44 74 53
-3 43 6 60 37 68 22 6 40 17 40 25 0 8 32 48 71 88 85 87 146 97 142 23 -2
-38 -13 -49 -43 -45 -25 3 -42 -8 -46 -33 -14 -67 39 -72 101 -10 32 32 69 58
83 58 14 0 36 23 48 50 14 29 40 50 64 50 22 0 40 7 40 15 -1 33 -33 55 -80
55 -31 0 -52 13 -56 35 -5 27 7 35 55 35 38 0 61 10 61 27 0 33 69 98 86 80 7
-7 22 11 33 40 18 47 41 62 85 56 8 -2 9 11 3 27 -7 18 4 35 26 42 20 7 57 36
81 65 40 47 45 48 58 15 14 -37 -25 -79 -56 -59 -9 5 -16 -13 -16 -39 0 -33
-14 -53 -40 -60 -23 -6 -40 -27 -40 -51 0 -23 -17 -46 -40 -53 -22 -7 -40 -22
-40 -34 0 -43 128 6 194 74 37 39 74 70 82 71 8 0 49 40 92 90 43 49 90 89
104 89 40 0 52 35 26 76 -26 42 -104 18 -158 -46 -41 -49 -80 -36 -80 26 0 45
23 75 105 140 126 100 118 92 205 204 38 50 83 104 100 122 16 17 30 37 30 45
0 7 36 50 80 95 101 105 104 174 6 174 -55 0 -76 -14 -121 -80z m-945 -1257
c0 -52 -66 -46 -76 6 -5 24 6 35 35 35 28 0 41 -13 41 -41z"/>
<path d="M1620 2477 c0 -41 29 -77 62 -77 21 0 38 -13 38 -29 0 -41 39 -60 67
-32 17 18 13 31 -19 57 -23 19 -48 49 -54 68 -11 32 -94 44 -94 13z"/>
<path d="M10252 2467 c-20 -52 -14 -63 35 -60 33 2 44 13 38 37 -12 45 -59 60
-73 23z"/>
<path d="M1808 2291 c-14 -36 24 -91 63 -91 24 0 62 75 46 89 -32 28 -99 30
-109 2z"/>
<path d="M10085 2285 c-14 -5 -25 -20 -25 -34 0 -14 -13 -37 -30 -51 -39 -32
-20 -60 40 -60 54 0 60 7 79 92 13 61 -2 74 -64 53z"/>
<path d="M2450 2019 c-17 -26 -10 -34 30 -39 62 -9 108 0 89 18 -34 31 -105
44 -119 21z"/>
<path d="M2899 1652 c21 -58 101 -69 101 -13 0 22 -7 42 -15 44 -90 15 -101
11 -86 -31z"/>
<path d="M3450 1484 c-20 -21 -9 -38 40 -60 52 -24 73 -97 22 -78 -56 22 -107
-38 -67 -79 33 -33 37 -33 91 19 69 66 144 73 144 13 0 -28 22 -50 69 -70 63
-26 69 -35 58 -89 -15 -73 23 -82 41 -10 10 37 26 50 67 52 l55 1 -50 24 c-35
16 -48 36 -44 67 5 37 -6 46 -70 57 -42 8 -94 29 -116 48 -22 19 -56 41 -75
47 -19 7 -35 26 -35 42 0 28 -105 41 -130 16z"/>
<path d="M8005 1235 c-11 -14 -26 -45 -33 -69 -8 -24 -29 -47 -48 -52 -31 -8
-31 -10 2 -12 19 -1 40 11 47 28 6 16 18 26 26 21 29 -19 83 39 70 75 -16 40
-37 43 -64 9z"/>
<path d="M3993 1149 c-17 -42 21 -73 108 -89 126 -23 185 17 113 77 -38 31
-211 41 -221 12z"/>
<path d="M7752 1069 c-31 -31 -27 -69 7 -69 17 0 45 83 33 95 -4 4 -22 -8 -40
-26z"/>
<path d="M4309 1038 c-20 -32 12 -53 101 -65 44 -6 82 -12 85 -12 3 -1 5 -14
5 -29 0 -18 31 -34 81 -42 45 -8 86 -25 91 -39 6 -15 85 -36 194 -51 101 -14
211 -39 243 -55 63 -32 106 -38 382 -55 223 -13 300 -22 327 -39 59 -36 424
-29 463 10 33 33 68 39 234 39 230 0 415 27 454 66 15 15 86 33 156 40 173 16
176 17 224 70 36 41 48 44 100 25 74 -29 135 16 92 68 -32 39 -69 40 -100 2
-16 -19 -46 -24 -93 -17 -49 8 -80 2 -106 -22 -24 -22 -88 -38 -185 -46 -81
-6 -170 -23 -198 -37 -147 -74 -1300 -88 -1559 -19 -27 8 -75 14 -105 15 -30
1 -55 8 -55 16 0 7 -58 19 -129 25 -72 7 -153 27 -181 46 -28 18 -102 37 -164
42 -70 6 -132 24 -163 48 -52 41 -172 51 -194 16z"/>
</g>
</svg>
